#define testXbm2_width 32
#define testXbm2_height 32
static unsigned char testXbm2_bits[] = {
   0x00, 0x00, 0x00, 0x00, 0x00, 0x00, 0x00, 0x00, 0x00, 0x00, 0xc0, 0x00,
   0x00, 0x00, 0xfe, 0x07, 0x00, 0xf0, 0x03, 0x0c, 0x80, 0x1f, 0x00, 0x18,
   0xf0, 0x00, 0x00, 0x30, 0x1c, 0x00, 0x00, 0x20, 0x04, 0x00, 0xfe, 0x3f,
   0x04, 0x00, 0x02, 0x24, 0xc4, 0x0f, 0x02, 0x24, 0x7c, 0x7c, 0x02, 0x24,
   0x04, 0x44, 0x02, 0x24, 0x04, 0x44, 0x3e, 0x20, 0x04, 0x40, 0xe0, 0x3f,
   0x04, 0x40, 0x00, 0x30, 0x1c, 0x70, 0x00, 0x30, 0xe4, 0x1f, 0x00, 0x10,
   0x04, 0x00, 0x00, 0x10, 0x04, 0x00, 0x00, 0x10, 0x04, 0x00, 0x00, 0x10,
   0x04, 0x00, 0x00, 0x10, 0x04, 0x00, 0x00, 0x10, 0x04, 0x00, 0x00, 0x10,
   0x04, 0x00, 0x00, 0x10, 0x04, 0x00, 0x00, 0x10, 0x04, 0x00, 0x00, 0x10,
   0x08, 0x00, 0x00, 0x10, 0xf0, 0xff, 0xff, 0x0f, 0x00, 0x00, 0x00, 0x00,
   0x00, 0x00, 0x00, 0x00, 0x00, 0x00, 0x00, 0x00 };    