#define testXbm1_width 32
#define testXbm1_height 32
static unsigned char testXbm1_bits[] = {
   0x00, 0x00, 0x00, 0x00, 0x00, 0x00, 0x00, 0x00, 0x00, 0x00, 0xc0, 0x00,
   0x00, 0x00, 0xfe, 0x07, 0x00, 0xf0, 0x03, 0x0c, 0x80, 0x1f, 0x00, 0x18,
   0xf0, 0x00, 0xfc, 0x37, 0x1c, 0x00, 0x06, 0x38, 0xc4, 0x7f, 0x02, 0x24,
   0x7c, 0x40, 0x02, 0x24, 0x04, 0x44, 0x02, 0x24, 0x04, 0x44, 0x02, 0x24,
   0x04, 0x44, 0x02, 0x24, 0x04, 0x44, 0x02, 0x20, 0x04, 0x40, 0x06, 0x20,
   0x04, 0x40, 0x3c, 0x38, 0x04, 0x40, 0xe0, 0x37, 0x1c, 0x60, 0x00, 0x10,
   0xf4, 0x3f, 0x00, 0x10, 0x04, 0x00, 0x00, 0x10, 0x04, 0x00, 0x00, 0x10,
   0x04, 0x00, 0x00, 0x10, 0x04, 0x00, 0x00, 0x10, 0x04, 0x00, 0x00, 0x10,
   0x04, 0x00, 0x00, 0x10, 0x04, 0x00, 0x00, 0x10, 0x04, 0x00, 0x00, 0x10,
   0x08, 0x00, 0x00, 0x10, 0xf0, 0xff, 0xff, 0x0f, 0x00, 0x00, 0x00, 0x00,
   0x00, 0x00, 0x00, 0x00, 0x00, 0x00, 0x00, 0x00 };  